<mxfile host="app.diagrams.net" agent="Mozilla/5.0 (X11; Linux x86_64; rv:143.0) Gecko/20100101 Firefox/143.0" version="28.2.5">
  <diagram name="Página-1" id="5x5n5BVvudMtrS4grpX9">
    <mxGraphModel dx="854" dy="492" grid="1" gridSize="10" guides="1" tooltips="1" connect="1" arrows="1" fold="1" page="1" pageScale="1" pageWidth="1169" pageHeight="827" background="light-dark(#ffffff, #000000)" math="0" shadow="0">
      <root>
        <mxCell id="0" />
        <mxCell id="1" parent="0" />
        <mxCell id="2pt-1rosbNWK3B8rVRdU-14" style="rounded=0;orthogonalLoop=1;jettySize=auto;html=1;exitX=1;exitY=1;exitDx=0;exitDy=0;entryX=0;entryY=0.5;entryDx=0;entryDy=0;labelBackgroundColor=none;strokeColor=#457B9D;fontColor=default;" parent="1" source="gqbpDM5HLqlDwkOFP76g-1" target="gqbpDM5HLqlDwkOFP76g-5" edge="1">
          <mxGeometry relative="1" as="geometry">
            <Array as="points">
              <mxPoint x="740" y="460" />
            </Array>
          </mxGeometry>
        </mxCell>
        <mxCell id="2pt-1rosbNWK3B8rVRdU-15" value="Suscripción plan premium" style="edgeLabel;html=1;align=center;verticalAlign=middle;resizable=0;points=[];labelBackgroundColor=none;fontColor=#1D3557;" parent="2pt-1rosbNWK3B8rVRdU-14" vertex="1" connectable="0">
          <mxGeometry x="0.0071" y="2" relative="1" as="geometry">
            <mxPoint as="offset" />
          </mxGeometry>
        </mxCell>
        <mxCell id="2pt-1rosbNWK3B8rVRdU-19" style="rounded=0;orthogonalLoop=1;jettySize=auto;html=1;exitX=0;exitY=1;exitDx=0;exitDy=0;labelBackgroundColor=none;strokeColor=#457B9D;fontColor=default;entryX=1;entryY=0.25;entryDx=0;entryDy=0;" parent="1" source="gqbpDM5HLqlDwkOFP76g-1" target="gqbpDM5HLqlDwkOFP76g-7" edge="1">
          <mxGeometry relative="1" as="geometry">
            <mxPoint x="340" y="550" as="targetPoint" />
            <Array as="points">
              <mxPoint x="510" y="480" />
            </Array>
          </mxGeometry>
        </mxCell>
        <mxCell id="GtQBqHUvE3aplTM1IHQd-1" value="Solicitud de backup" style="edgeLabel;html=1;align=center;verticalAlign=middle;resizable=0;points=[];labelBackgroundColor=none;fontColor=#1D3557;" parent="2pt-1rosbNWK3B8rVRdU-19" vertex="1" connectable="0">
          <mxGeometry x="0.0034" y="-3" relative="1" as="geometry">
            <mxPoint as="offset" />
          </mxGeometry>
        </mxCell>
        <mxCell id="gqbpDM5HLqlDwkOFP76g-1" value="&lt;div&gt;SISTEMA&lt;/div&gt;&lt;div&gt;DE&lt;/div&gt;&lt;div&gt;VENTAS&lt;/div&gt;" style="shape=ellipse;html=1;dashed=0;whiteSpace=wrap;perimeter=ellipsePerimeter;labelBackgroundColor=none;fillColor=#A8DADC;strokeColor=#457B9D;fontColor=#1D3557;" parent="1" vertex="1">
          <mxGeometry x="535" y="344" width="100" height="100" as="geometry" />
        </mxCell>
        <mxCell id="2pt-1rosbNWK3B8rVRdU-1" style="rounded=0;orthogonalLoop=1;jettySize=auto;html=1;exitX=0.5;exitY=1;exitDx=0;exitDy=0;entryX=0.5;entryY=0;entryDx=0;entryDy=0;labelBackgroundColor=none;strokeColor=#457B9D;fontColor=default;" parent="1" source="gqbpDM5HLqlDwkOFP76g-2" target="gqbpDM5HLqlDwkOFP76g-1" edge="1">
          <mxGeometry relative="1" as="geometry">
            <Array as="points">
              <mxPoint x="510" y="270" />
            </Array>
          </mxGeometry>
        </mxCell>
        <mxCell id="2pt-1rosbNWK3B8rVRdU-2" value="Gestión de datos" style="edgeLabel;html=1;align=center;verticalAlign=middle;resizable=0;points=[];labelBackgroundColor=none;fontColor=#1D3557;" parent="2pt-1rosbNWK3B8rVRdU-1" vertex="1" connectable="0">
          <mxGeometry x="-0.0149" relative="1" as="geometry">
            <mxPoint x="12" y="-10" as="offset" />
          </mxGeometry>
        </mxCell>
        <mxCell id="gqbpDM5HLqlDwkOFP76g-2" value="USUSARIO" style="html=1;dashed=0;whiteSpace=wrap;labelBackgroundColor=none;fillColor=#A8DADC;strokeColor=#457B9D;fontColor=#1D3557;" parent="1" vertex="1">
          <mxGeometry x="350" y="160" width="100" height="100" as="geometry" />
        </mxCell>
        <mxCell id="2pt-1rosbNWK3B8rVRdU-17" style="rounded=0;orthogonalLoop=1;jettySize=auto;html=1;exitX=0;exitY=0.5;exitDx=0;exitDy=0;entryX=1;entryY=1;entryDx=0;entryDy=0;labelBackgroundColor=none;strokeColor=#457B9D;fontColor=default;" parent="1" source="gqbpDM5HLqlDwkOFP76g-5" target="gqbpDM5HLqlDwkOFP76g-1" edge="1">
          <mxGeometry relative="1" as="geometry">
            <Array as="points">
              <mxPoint x="650" y="530" />
            </Array>
          </mxGeometry>
        </mxCell>
        <mxCell id="2pt-1rosbNWK3B8rVRdU-18" value="Suscripción verificada" style="edgeLabel;html=1;align=center;verticalAlign=middle;resizable=0;points=[];labelBackgroundColor=none;fontColor=#1D3557;" parent="2pt-1rosbNWK3B8rVRdU-17" vertex="1" connectable="0">
          <mxGeometry x="0.0092" y="-1" relative="1" as="geometry">
            <mxPoint as="offset" />
          </mxGeometry>
        </mxCell>
        <mxCell id="gqbpDM5HLqlDwkOFP76g-5" value="SISTEMA DE PAGOS" style="html=1;dashed=0;whiteSpace=wrap;labelBackgroundColor=none;fillColor=#A8DADC;strokeColor=#457B9D;fontColor=#1D3557;" parent="1" vertex="1">
          <mxGeometry x="790" y="530" width="100" height="100" as="geometry" />
        </mxCell>
        <mxCell id="gqbpDM5HLqlDwkOFP76g-6" value="AUTH0" style="html=1;dashed=0;whiteSpace=wrap;fillColor=#A8DADC;fontColor=#1D3557;strokeColor=#457B9D;labelBackgroundColor=none;" parent="1" vertex="1">
          <mxGeometry x="770" y="210" width="100" height="100" as="geometry" />
        </mxCell>
        <mxCell id="2pt-1rosbNWK3B8rVRdU-21" style="rounded=0;orthogonalLoop=1;jettySize=auto;html=1;exitX=0.5;exitY=0;exitDx=0;exitDy=0;entryX=0;entryY=0.5;entryDx=0;entryDy=0;labelBackgroundColor=none;strokeColor=#457B9D;fontColor=default;" parent="1" source="gqbpDM5HLqlDwkOFP76g-7" target="gqbpDM5HLqlDwkOFP76g-1" edge="1">
          <mxGeometry relative="1" as="geometry">
            <Array as="points">
              <mxPoint x="460" y="430" />
            </Array>
          </mxGeometry>
        </mxCell>
        <mxCell id="GtQBqHUvE3aplTM1IHQd-2" value="Backup generado" style="edgeLabel;html=1;align=center;verticalAlign=middle;resizable=0;points=[];strokeColor=#457B9D;fontColor=#1D3557;fillColor=#A8DADC;labelBackgroundColor=none;" parent="2pt-1rosbNWK3B8rVRdU-21" vertex="1" connectable="0">
          <mxGeometry x="-0.0137" y="1" relative="1" as="geometry">
            <mxPoint as="offset" />
          </mxGeometry>
        </mxCell>
        <mxCell id="gqbpDM5HLqlDwkOFP76g-7" value="SISTEMA DE BACKUP" style="html=1;dashed=0;whiteSpace=wrap;labelBackgroundColor=none;fillColor=#A8DADC;strokeColor=#457B9D;fontColor=#1D3557;" parent="1" vertex="1">
          <mxGeometry x="340" y="490" width="100" height="100" as="geometry" />
        </mxCell>
        <mxCell id="2pt-1rosbNWK3B8rVRdU-4" style="rounded=0;orthogonalLoop=1;jettySize=auto;html=1;exitX=0;exitY=0;exitDx=0;exitDy=0;entryX=0.5;entryY=1;entryDx=0;entryDy=0;labelBackgroundColor=none;strokeColor=#457B9D;fontColor=default;" parent="1" source="gqbpDM5HLqlDwkOFP76g-1" target="gqbpDM5HLqlDwkOFP76g-2" edge="1">
          <mxGeometry relative="1" as="geometry">
            <Array as="points">
              <mxPoint x="450" y="330" />
            </Array>
          </mxGeometry>
        </mxCell>
        <mxCell id="2pt-1rosbNWK3B8rVRdU-5" value="Generación de reportes" style="edgeLabel;html=1;align=center;verticalAlign=middle;resizable=0;points=[];labelBackgroundColor=none;fontColor=#1D3557;" parent="2pt-1rosbNWK3B8rVRdU-4" vertex="1" connectable="0">
          <mxGeometry x="-0.0196" y="1" relative="1" as="geometry">
            <mxPoint x="2" y="-7" as="offset" />
          </mxGeometry>
        </mxCell>
        <mxCell id="2pt-1rosbNWK3B8rVRdU-6" value="" style="endArrow=classic;html=1;rounded=0;entryX=0;entryY=0.5;entryDx=0;entryDy=0;exitX=1;exitY=0;exitDx=0;exitDy=0;fillColor=#A8DADC;strokeColor=#457B9D;labelBackgroundColor=none;fontColor=default;jumpStyle=none;" parent="1" source="gqbpDM5HLqlDwkOFP76g-1" target="gqbpDM5HLqlDwkOFP76g-6" edge="1">
          <mxGeometry width="50" height="50" relative="1" as="geometry">
            <mxPoint x="560" y="500" as="sourcePoint" />
            <mxPoint x="610" y="450" as="targetPoint" />
            <Array as="points">
              <mxPoint x="680" y="290" />
            </Array>
          </mxGeometry>
        </mxCell>
        <mxCell id="2pt-1rosbNWK3B8rVRdU-7" value="Autenticación de usuario" style="edgeLabel;html=1;align=center;verticalAlign=middle;resizable=0;points=[];labelBackgroundColor=none;fontColor=#1D3557;" parent="2pt-1rosbNWK3B8rVRdU-6" vertex="1" connectable="0">
          <mxGeometry x="-0.1041" relative="1" as="geometry">
            <mxPoint x="13" y="-8" as="offset" />
          </mxGeometry>
        </mxCell>
        <mxCell id="2pt-1rosbNWK3B8rVRdU-8" value="" style="endArrow=classic;html=1;rounded=0;entryX=1;entryY=0.5;entryDx=0;entryDy=0;labelBackgroundColor=none;strokeColor=#457B9D;fontColor=default;exitX=0.25;exitY=1;exitDx=0;exitDy=0;" parent="1" source="gqbpDM5HLqlDwkOFP76g-6" target="gqbpDM5HLqlDwkOFP76g-1" edge="1">
          <mxGeometry width="50" height="50" relative="1" as="geometry">
            <mxPoint x="820" y="210" as="sourcePoint" />
            <mxPoint x="560" y="360" as="targetPoint" />
            <Array as="points">
              <mxPoint x="720" y="370" />
            </Array>
          </mxGeometry>
        </mxCell>
        <mxCell id="2pt-1rosbNWK3B8rVRdU-9" value="Usuario verificado" style="edgeLabel;html=1;align=center;verticalAlign=middle;resizable=0;points=[];labelBackgroundColor=none;fontColor=#1D3557;" parent="2pt-1rosbNWK3B8rVRdU-8" vertex="1" connectable="0">
          <mxGeometry x="-0.0071" y="1" relative="1" as="geometry">
            <mxPoint as="offset" />
          </mxGeometry>
        </mxCell>
      </root>
    </mxGraphModel>
  </diagram>
</mxfile>
